<?xml version="1.0" encoding="UTF-8"?><svg id="Camada_1" xmlns="http://www.w3.org/2000/svg" viewBox="0 0 326.16 320.85"><defs><style>.cls-1{fill:#333;stroke:#333;stroke-miterlimit:10;stroke-width:9px;}</style></defs><path class="cls-1" d="m162.76,310.87c-82.49-.68-150.16-65.62-149.96-150.89C13,75.44,79.41,9.78,163.42,9.98c84.31.2,149.95,66.24,149.93,150.28-.01,85.76-68.17,150.33-150.59,150.6ZM30.57,160.6c-.67,71.04,55.71,133.25,133.03,133.07,76.63-.17,133.02-60.15,133.01-133.7-.01-75.2-58.29-132.44-132.62-132.58-76.68-.15-134.04,61.54-133.42,133.21Z"/><path class="cls-1" d="m150.07,184.38c0-12.22-.03-24.45,0-36.67.02-7.25,3.64-10.88,10.71-10.88,6.74,0,10.69,4.03,10.71,11.16.05,14.59.02,29.19.02,43.78,0,10.23.04,20.46-.02,30.68-.04,6.96-3.79,10.67-10.64,10.68-6.85.01-10.75-3.73-10.78-10.58-.06-12.72-.02-25.45-.02-38.17Z"/><path class="cls-1" d="m149.29,104.06c.08-6.72,5.02-11.33,12.14-11.31,7.56.02,12.45,4.74,12.37,11.96-.07,6.72-5,11.3-12.19,11.34-7.48.04-12.4-4.75-12.32-11.98Z"/></svg>