<?xml version="1.0" encoding="utf-8"?>
<!-- Generator: Adobe Illustrator 28.0.0, SVG Export Plug-In . SVG Version: 6.00 Build 0)  -->
<svg version="1.1" id="Layer_1" xmlns="http://www.w3.org/2000/svg" xmlns:xlink="http://www.w3.org/1999/xlink" x="0px" y="0px"
	 viewBox="0 0 76 76" style="enable-background:new 0 0 76 76;" xml:space="preserve">
<style type="text/css">
	.st0{fill-rule:evenodd;clip-rule:evenodd;fill:#FFFFFF;}
</style>
<path class="st0" d="M38.7,73.6c-6.5,0-12.6-1.7-17.9-4.6L0.3,75.6L7,55.9c-3.4-5.5-5.3-12-5.3-18.9c0-0.5,0-1.1,0-1.6
	c0.8-19.5,17.1-35.1,37-35.1c19.9,0,36.5,15.9,37,35.8c0,0.2,0,0.3,0,0.5c0,0.2,0,0.3,0,0.5C75.7,57.2,59.1,73.6,38.7,73.6
	L38.7,73.6z M7.7,33.9c1.5-15.6,14.8-27.9,31-27.9c16.3,0,29.8,12.6,31,28.4c0.1,0.8,0.1,1.6,0.1,2.4c0,17-13.9,30.9-31.1,30.9
	c-6.3,0-12.2-1.9-17.1-5.1l-12,3.8L13.5,55c-3.7-5.1-5.9-11.4-5.9-18.1C7.6,35.9,7.6,34.9,7.7,33.9z M38.7,6.1
	C38.7,6.1,38.7,6.1,38.7,6.1L38.7,6.1C38.7,6.1,38.7,6.1,38.7,6.1z M50.7,53.9c1.7-0.2,5.4-2.2,6.1-4.3l0,0c0.8-2.1,0.8-3.9,0.5-4.3
	c-0.2-0.3-0.6-0.5-1.3-0.8c-0.1-0.1-0.3-0.1-0.5-0.2c-0.9-0.4-5.4-2.6-6.2-2.9c-0.8-0.3-1.4-0.4-2,0.4c-0.6,0.9-2.3,2.9-2.9,3.5
	c-0.5,0.6-1.1,0.7-2,0.2c-0.1-0.1-0.3-0.2-0.6-0.3c-1.3-0.5-3.8-1.6-6.7-4.2c-2.7-2.4-4.5-5.3-5.1-6.2c-0.5-0.9,0-1.4,0.4-1.8
	c0.2-0.2,0.5-0.6,0.8-0.9c0.2-0.2,0.4-0.5,0.6-0.7c0.1-0.2,0.2-0.3,0.3-0.4c0.2-0.3,0.3-0.5,0.5-0.8c0-0.1,0.1-0.1,0.1-0.2
	c0.3-0.6,0.1-1.1-0.1-1.6c-0.2-0.3-1.3-3.1-2.2-5.1c-0.2-0.6-0.5-1.1-0.6-1.6c-0.7-1.6-1.3-1.5-1.8-1.5c-0.1,0-0.1,0-0.2,0
	c-0.3,0-0.5,0-0.8,0c-0.3,0-0.6,0-0.9,0c-0.6,0-1.6,0.2-2.4,1.1c-0.1,0.1-0.1,0.1-0.2,0.2c-0.9,1-3,3.2-3,7.3c0,1.1,0.2,2.1,0.5,3.1
	c0.9,3.1,2.8,5.7,3.2,6.2l0,0c0,0,0.1,0.2,0.2,0.3c1.2,1.8,6.8,10,15.3,13.3c7.6,3,9,2.7,10.1,2.4C50.2,54,50.4,54,50.7,53.9z"/>
</svg>
